<svg xmlns="http://www.w3.org/2000/svg" width="231.711" height="37.515" viewBox="0 0 231.711 37.515">
  <g id="Group_12708" data-name="Group 12708" transform="translate(-6540.054 1561.908)">
    <path id="Path_3311" data-name="Path 3311" d="M883.042,49.292,869.759,28.114l0-.028-.011.012-.005-.012,0,.028L856.45,49.292H859.2l10.542-16.645,4.077,6.425H869.26l-1.516,2.414h7.6l4.968,7.806Zm-29.879-9.215h-10.48v2.407h7.924l-.043.149a8.638,8.638,0,0,1-7.761,4.956,8.769,8.769,0,0,1-8.649-8.879,8.911,8.911,0,0,1,3.837-7.366,8.442,8.442,0,0,1,4.838-1.523,8.646,8.646,0,0,1,7.814,5.091h2.77A11.24,11.24,0,0,0,842.829,27.2a11.5,11.5,0,1,0,11.126,12.882Zm141.053,9.215L980.933,28.114v-.028l-.009.011-.014-.011,0,.028L967.622,49.292h2.749l10.552-16.645L985,39.072h-4.565l-1.523,2.413h7.6l4.96,7.807ZM819.865,30.619v-2.45H804.744V49.292h15.122V46.711H807.306V41.478h12.02V39.057h-12.02V30.619Zm-24.642-2.451.013,10.888H785.053l0-10.888h-2.482V49.292h2.482V41.486h10.174v7.806h2.467V28.169Zm-17.595.01H762.506v2.539h6.316V49.306H771.3V30.718h6.328Zm161.636,2.645-.336-.407h6.6a5.8,5.8,0,0,1,3.637,1.3,5.448,5.448,0,0,1,2.047,3.772,5.37,5.37,0,0,1-1.317,4.061,5.691,5.691,0,0,1-2.215,1.57Zm14.774,18.468L949.3,43.128a8.193,8.193,0,0,0,2.568-1.994,7.852,7.852,0,0,0,1.916-5.875,7.938,7.938,0,0,0-2.959-5.451,8.187,8.187,0,0,0-5.292-1.638h-9.8V49.292h2.4l-.01-16.223,13.122,16.223ZM898.505,39.077V28.169h-2.569V41.486h10.259l.007-2.409Zm-6.434,7.635h-.682V28.169h-2.565V49.292h17.371V46.711Zm36.708-16.092v-2.45H913.649V49.292h15.129V46.711H916.221V41.478h12.007V39.057H916.221V30.619Zm32.137-2.45h2.562V49.292h-2.562Z" transform="translate(5777.548 -1589.103)" fill="#fff"/>
    <path id="Path_3312" data-name="Path 3312" d="M873.3,69.355l-2.3-3.23h.418c1.64,0,2.25-.957,2.25-1.563,0-.407-.151-1.733-2.016-1.733h-1.118v6.5l-.832.021V62.04h1.812c.7,0,2.986.175,2.986,2.4a2.35,2.35,0,0,1-1.981,2.375l1.823,2.538Zm-37.931-3.2-1.209-3.023-1.224,3.023Zm1.319,3.194-.99-2.411H832.61l-1,2.411h-.858l2.977-7.309h.86l3,7.309Zm2.942,0V62.039h.826v6.528H843.3v.781Zm18.1,0V63.284l-2.469,6.064h-.67l-2.441-6.061v6.061h-.836V62.039h1.175l2.442,5.982,2.428-5.982h1.184v7.309Zm7.475-3.194L864,63.131l-1.226,3.023Zm1.309,3.194-.979-2.411h-3.091l-.993,2.411h-.872l2.98-7.309h.865l3,7.309Zm12.256,0V66.9l-2.427-4.862h.931l1.923,4,1.946-4h.9L879.61,66.9v2.447Zm8.96-3.194-1.207-3.023L885.3,66.155Zm1.312,3.194-.978-2.411h-3.1l-1,2.411h-.868l2.981-7.309h.865l3,7.309Zm7.327,0V66.93H892.96v2.419h-.831V62.039h.831v4.1h3.414v-4.1h.815v7.309Zm9.313-7.309h.833v7.309h-.833Zm9.77,7.309V62.039h.829v6.528h2.834v.781Zm10.031-3.211-1.217-3.009-1.218,3.009Zm1.287,3.211-.987-2.411H922.7l-.99,2.411h-.868l2.983-7.309h.849l3,7.309Zm7.739,0-3.967-6.122v6.122h-.831V62.039h1.042l3.71,5.774V62.039h.836v7.309Zm5.439-.781a4.395,4.395,0,0,0,1.858-.315,2.555,2.555,0,0,0,.81-.65,2.783,2.783,0,0,0,.7-1.911,2.888,2.888,0,0,0-.432-1.536,2.586,2.586,0,0,0-1.162-1.018,4.265,4.265,0,0,0-1.769-.308h-.9v5.739Zm-1.734.781V62.039h2.019a4.705,4.705,0,0,1,1.615.264,3.331,3.331,0,0,1,1.087.669,3.615,3.615,0,0,1,1.185,2.741,3.675,3.675,0,0,1-.571,1.978,3.323,3.323,0,0,1-1.466,1.334,4.414,4.414,0,0,1-1.806.324Zm-27.312.131a2.1,2.1,0,0,1-1.547-.611,2.276,2.276,0,0,1-.641-1.595l0-.079h.862l.013.064a1.57,1.57,0,0,0,.448,1.08,1.253,1.253,0,0,0,1.795-.044,1.294,1.294,0,0,0,.388-.951,1.163,1.163,0,0,0-.432-.97,2.755,2.755,0,0,0-1.027-.472,2.734,2.734,0,0,1-1.327-.644,1.86,1.86,0,0,1-.5-1.334,1.936,1.936,0,0,1,.568-1.435,1.968,1.968,0,0,1,1.43-.573,1.885,1.885,0,0,1,1.392.574,1.95,1.95,0,0,1,.563,1.433V64l-.839.012,0-.07a1.5,1.5,0,0,0-.384-.9,1.037,1.037,0,0,0-.792-.343,1.016,1.016,0,0,0-.786.349,1.2,1.2,0,0,0-.319.847.924.924,0,0,0,.257.722,2.635,2.635,0,0,0,1.029.483,7.2,7.2,0,0,1,.841.274,2,2,0,0,1,.449.306,2.052,2.052,0,0,1,.71,1.623,2.127,2.127,0,0,1-.625,1.539,2.082,2.082,0,0,1-1.523.639" transform="translate(5768.468 -1593.872)" fill="#fff"/>
  </g>
</svg>
