<svg xmlns="http://www.w3.org/2000/svg" width="22.001" height="15.46" viewBox="0 0 22.001 15.46">
  <g id="youtube" transform="translate(-0.999 -4)">
    <path id="Path_19" data-name="Path 19" d="M22.54,6.42a2.78,2.78,0,0,0-1.94-2C18.88,4,12,4,12,4s-6.88,0-8.6.46a2.78,2.78,0,0,0-1.94,2A29,29,0,0,0,1,11.75a29,29,0,0,0,.46,5.33A2.78,2.78,0,0,0,3.4,19c1.72.46,8.6.46,8.6.46s6.88,0,8.6-.46a2.78,2.78,0,0,0,1.94-2A29,29,0,0,0,23,11.75a29,29,0,0,0-.46-5.33Z" fill="#fff" opacity="0.5"/>
    <path id="Path_20" data-name="Path 20" d="M9.75,15.02l5.75-3.27L9.75,8.48Z" fill="#2a2829"/>
  </g>
</svg>
